<svg xmlns="http://www.w3.org/2000/svg" xmlns:xlink="http://www.w3.org/1999/xlink" width="500" zoomAndPan="magnify" viewBox="0 0 375 374.999991" height="500" preserveAspectRatio="xMidYMid meet" version="1.0"><defs><g/><clipPath id="bb9b40c935"><path d="M 122 54 L 262 54 L 262 249.199219 L 122 249.199219 Z M 122 54 " clip-rule="nonzero"/></clipPath><clipPath id="ff316c364d"><rect x="0" width="103" y="0" height="69"/></clipPath></defs><g clip-path="url(#bb9b40c935)"><path fill="#f54748" d="M 255.476562 206.867188 C 250.339844 218.910156 241.867188 229.46875 230.941406 237.019531 C 220.015625 244.566406 206.636719 249.105469 191.683594 249.105469 C 138.351562 249.105469 105.019531 191.371094 131.6875 145.183594 L 180.601562 60.464844 C 185.152344 52.578125 196.011719 51.980469 201.523438 58.664062 C 199.328125 62.425781 197.085938 66.3125 194.835938 70.277344 C 172.351562 109.855469 159.628906 137.878906 157.023438 153.5625 C 154.734375 167.324219 158.832031 181.75 168.550781 194.175781 C 173.050781 199.925781 178.503906 204.949219 184.761719 209.101562 C 191.097656 213.3125 197.902344 216.390625 204.992188 218.253906 C 210.050781 219.585938 215.113281 220.253906 220.105469 220.253906 C 221.867188 220.253906 223.621094 220.171875 225.359375 220.003906 C 232.515625 219.320312 239.328125 217.226562 245.605469 213.785156 C 249.078125 211.882812 252.375 209.566406 255.476562 206.867188 Z M 251.683594 145.183594 L 206.011719 66.082031 C 204.5 68.695312 202.96875 71.363281 201.433594 74.0625 C 179.714844 112.300781 166.953125 140.222656 164.53125 154.808594 C 162.597656 166.441406 166.152344 178.757812 174.546875 189.484375 C 182.617188 199.800781 194.417969 207.605469 206.925781 210.894531 C 211.390625 212.070312 215.8125 212.652344 220.132812 212.652344 C 227.84375 212.652344 235.230469 210.792969 241.945312 207.113281 C 247.769531 203.921875 253.058594 199.359375 257.667969 193.5625 C 258.5625 192.4375 259.433594 191.257812 260.28125 190.035156 C 262.519531 175.378906 260.070312 159.710938 251.683594 145.183594 Z M 251.683594 145.183594 " fill-opacity="1" fill-rule="nonzero"/></g><g transform="matrix(1, 0, 0, 1, 140, 261)"><g clip-path="url(#ff316c364d)"><g fill="#f54748" fill-opacity="1"><g transform="translate(0.695775, 47.66153)"><g><path d="M 19.671875 -8.359375 L 37.5 -8.359375 L 37.5 0 L 15.8125 0 C 12.09375 0 10.234375 1.75 10.234375 5.25 L 10.234375 9.875 L 2.375 9.875 L 2.375 3.546875 C 2.375 0.347656 3.175781 -2.273438 4.78125 -4.328125 C 6.382812 -6.378906 8.5625 -7.644531 11.3125 -8.125 C 10.382812 -10.726562 9.921875 -13.035156 9.921875 -15.046875 C 9.921875 -17.679688 10.535156 -19.925781 11.765625 -21.78125 C 12.992188 -23.632812 14.710938 -25.054688 16.921875 -26.046875 C 19.140625 -27.035156 21.71875 -27.53125 24.65625 -27.53125 C 26.476562 -27.53125 28.382812 -27.332031 30.375 -26.9375 C 32.363281 -26.550781 34.453125 -26.015625 36.640625 -25.328125 L 34.265625 -17.46875 C 32.492188 -18.007812 30.859375 -18.421875 29.359375 -18.703125 C 27.867188 -18.984375 26.539062 -19.125 25.375 -19.125 C 23.070312 -19.125 21.238281 -18.640625 19.875 -17.671875 C 18.507812 -16.703125 17.828125 -15.300781 17.828125 -13.46875 C 17.828125 -11.738281 18.441406 -10.035156 19.671875 -8.359375 Z M 19.671875 -8.359375 "/></g></g></g><g fill="#f54748" fill-opacity="1"><g transform="translate(46.441531, 48.020771)"><g><path d="M 11.9375 -42.84375 C 11.9375 -42.476562 11.921875 -42.019531 11.890625 -41.46875 C 11.867188 -40.914062 11.8125 -40.367188 11.71875 -39.828125 L 1.21875 -38.3125 L 1.21875 -40.78125 L 4.765625 -41.3125 C 4.578125 -41.757812 4.484375 -42.253906 4.484375 -42.796875 C 4.484375 -43.753906 4.773438 -44.644531 5.359375 -45.46875 C 5.941406 -46.289062 6.910156 -46.703125 8.265625 -46.703125 C 9.398438 -46.703125 10.296875 -46.359375 10.953125 -45.671875 C 11.609375 -44.984375 11.9375 -44.039062 11.9375 -42.84375 Z M 6.828125 -41.578125 L 9.46875 -41.984375 C 9.5 -42.078125 9.515625 -42.203125 9.515625 -42.359375 C 9.515625 -42.523438 9.515625 -42.6875 9.515625 -42.84375 C 9.515625 -43.257812 9.394531 -43.601562 9.15625 -43.875 C 8.914062 -44.144531 8.554688 -44.28125 8.078125 -44.28125 C 7.691406 -44.28125 7.347656 -44.132812 7.046875 -43.84375 C 6.742188 -43.5625 6.59375 -43.195312 6.59375 -42.75 C 6.59375 -42.570312 6.613281 -42.390625 6.65625 -42.203125 C 6.707031 -42.023438 6.765625 -41.816406 6.828125 -41.578125 Z M 10.328125 -34.359375 L 10.328125 -36.421875 L 12.796875 -36.421875 L 12.796875 -33.59375 C 12.796875 -32.632812 12.507812 -31.867188 11.9375 -31.296875 C 11.375 -30.734375 10.597656 -30.453125 9.609375 -30.453125 C 8.203125 -30.453125 7.195312 -30.820312 6.59375 -31.5625 C 6 -30.820312 5.085938 -30.453125 3.859375 -30.453125 C 2.835938 -30.453125 2.015625 -30.734375 1.390625 -31.296875 C 0.765625 -31.867188 0.453125 -32.632812 0.453125 -33.59375 L 0.453125 -36.421875 L 2.921875 -36.421875 L 2.921875 -34.359375 C 2.921875 -33.191406 3.351562 -32.609375 4.21875 -32.609375 C 5.09375 -32.609375 5.53125 -33.191406 5.53125 -34.359375 L 5.53125 -36.421875 L 7.671875 -36.421875 L 7.671875 -34.359375 C 7.671875 -33.191406 8.109375 -32.609375 8.984375 -32.609375 C 9.878906 -32.609375 10.328125 -33.191406 10.328125 -34.359375 Z M 10.328125 -34.359375 "/></g></g></g><g fill="#f54748" fill-opacity="1"><g transform="translate(40.065064, 47.66153)"><g><path d="M 17.15625 -8.359375 L 21.875 -8.359375 L 21.875 0 L 16.890625 0 C 16.410156 3.53125 15.195312 6.054688 13.25 7.578125 C 11.300781 9.109375 8.648438 9.875 5.296875 9.875 C 3.410156 9.875 1.628906 9.695312 -0.046875 9.34375 L -0.984375 2.25 C 0.0546875 2.28125 0.953125 2.300781 1.703125 2.3125 C 2.453125 2.320312 3.234375 2.328125 4.046875 2.328125 C 5.535156 2.328125 6.691406 1.882812 7.515625 1 C 8.335938 0.125 8.75 -1.332031 8.75 -3.375 L 8.75 -26.1875 L 17.15625 -26.1875 Z M 17.15625 -8.359375 "/></g></g></g><g fill="#f54748" fill-opacity="1"><g transform="translate(61.029099, 47.66153)"><g><path d="M 18.140625 0 L 0 0 L 0 -8.359375 L 4.53125 -8.359375 L 4.53125 -26.1875 L 12.9375 -26.1875 L 12.9375 -8.359375 L 18.140625 -8.359375 Z M 8.75 11.578125 C 7.613281 11.578125 6.601562 11.253906 5.71875 10.609375 C 4.84375 9.972656 4.40625 8.992188 4.40625 7.671875 C 4.40625 6.503906 4.828125 5.566406 5.671875 4.859375 C 6.523438 4.160156 7.550781 3.8125 8.75 3.8125 C 9.976562 3.8125 11.003906 4.160156 11.828125 4.859375 C 12.648438 5.566406 13.0625 6.503906 13.0625 7.671875 C 13.0625 8.992188 12.628906 9.972656 11.765625 10.609375 C 10.898438 11.253906 9.894531 11.578125 8.75 11.578125 Z M 8.75 11.578125 "/></g></g></g><g fill="#f54748" fill-opacity="1"><g transform="translate(78.267192, 47.66153)"><g><path d="M 7.953125 -29.953125 C 6.835938 -29.953125 5.847656 -30.265625 4.984375 -30.890625 C 4.117188 -31.523438 3.6875 -32.484375 3.6875 -33.765625 C 3.6875 -34.929688 4.097656 -35.863281 4.921875 -36.5625 C 5.742188 -37.269531 6.753906 -37.625 7.953125 -37.625 C 9.179688 -37.625 10.207031 -37.269531 11.03125 -36.5625 C 11.851562 -35.863281 12.265625 -34.929688 12.265625 -33.765625 C 12.265625 -32.484375 11.828125 -31.523438 10.953125 -30.890625 C 10.085938 -30.265625 9.085938 -29.953125 7.953125 -29.953125 Z M 18.71875 -29.953125 C 17.613281 -29.953125 16.625 -30.265625 15.75 -30.890625 C 14.882812 -31.523438 14.453125 -32.484375 14.453125 -33.765625 C 14.453125 -34.929688 14.863281 -35.863281 15.6875 -36.5625 C 16.507812 -37.269531 17.519531 -37.625 18.71875 -37.625 C 19.945312 -37.625 20.960938 -37.269531 21.765625 -36.5625 C 22.578125 -35.863281 22.984375 -34.929688 22.984375 -33.765625 C 22.984375 -32.484375 22.554688 -31.523438 21.703125 -30.890625 C 20.859375 -30.265625 19.863281 -29.953125 18.71875 -29.953125 Z M 17.515625 0 L 0 0 L 0 -8.359375 L 9.109375 -8.359375 L 9.109375 -26.1875 L 17.515625 -26.1875 Z M 17.515625 0 "/></g></g></g></g></g></svg>