<svg xmlns="http://www.w3.org/2000/svg" xmlns:xlink="http://www.w3.org/1999/xlink" width="500" height="500" preserveAspectRatio="xMidYMid meet" version="1.0" viewBox="0 0 375 375" zoomAndPan="magnify"><defs><clipPath id="e0a1bd2860"><path d="M 103 55 L 294 55 L 294 322.980469 L 103 322.980469 Z M 103 55" clip-rule="nonzero"/></clipPath></defs><g clip-path="url(#e0a1bd2860)"><path fill="#f54748" fill-opacity="1" fill-rule="nonzero" d="M 285.878906 264.773438 C 278.832031 281.296875 267.207031 295.785156 252.214844 306.144531 C 237.226562 316.5 218.867188 322.726562 198.351562 322.726562 C 125.179688 322.726562 79.449219 243.511719 116.035156 180.144531 L 183.144531 63.902344 C 189.390625 53.085938 204.289062 52.265625 211.851562 61.4375 C 208.839844 66.59375 205.765625 71.929688 202.675781 77.367188 C 171.828125 131.671875 154.375 170.117188 150.796875 191.636719 C 147.660156 210.523438 153.277344 230.3125 166.617188 247.363281 C 172.789062 255.253906 180.269531 262.144531 188.851562 267.84375 C 197.546875 273.617188 206.886719 277.839844 216.613281 280.398438 C 223.550781 282.222656 230.5 283.140625 237.347656 283.140625 C 239.765625 283.140625 242.171875 283.03125 244.558594 282.800781 C 254.375 281.859375 263.722656 278.988281 272.335938 274.269531 C 277.101562 271.65625 281.625 268.480469 285.878906 264.773438 Z M 280.671875 180.144531 L 218.011719 71.617188 C 215.9375 75.199219 213.835938 78.859375 211.734375 82.5625 C 181.933594 135.027344 164.421875 173.335938 161.097656 193.347656 C 158.445312 209.3125 163.324219 226.207031 174.839844 240.925781 C 185.910156 255.078125 202.105469 265.785156 219.265625 270.300781 C 225.390625 271.910156 231.457031 272.714844 237.386719 272.714844 C 247.964844 272.714844 258.097656 270.160156 267.316406 265.109375 C 275.304688 260.730469 282.5625 254.476562 288.882812 246.519531 C 290.113281 244.972656 291.308594 243.355469 292.46875 241.679688 C 295.539062 221.570312 292.179688 200.074219 280.671875 180.144531 Z M 280.671875 180.144531"/></g></svg>