<svg xmlns="http://www.w3.org/2000/svg" xmlns:xlink="http://www.w3.org/1999/xlink" preserveAspectRatio="xMidYMid meet" version="1.2" viewBox="6 117 363 140" zoomAndPan="magnify"><defs><clipPath id="767a8ac332"><path d="M 226 177 L 369 177 L 369 257.757812 L 226 257.757812 Z M 226 177"/></clipPath><clipPath id="7ec7a89e66"><path d="M 6 177 L 145 177 L 145 257.757812 L 6 257.757812 Z M 6 177"/></clipPath><clipPath id="9745e3948e"><path d="M 136 117.507812 L 233 117.507812 L 233 257 L 136 257 Z M 136 117.507812"/></clipPath></defs><g id="aebc17cee2"><g clip-path="url(#767a8ac332)" clip-rule="nonzero"><path style="stroke:none;fill-rule:nonzero;fill:#f54748;fill-opacity:1" d="M 366.835938 229.058594 L 330.984375 229.058594 L 322.460938 215.765625 C 322.097656 215.195312 321.417969 214.894531 320.75 215.011719 C 320.082031 215.132812 319.546875 215.640625 319.394531 216.300781 L 316.832031 227.570312 L 313.191406 218.09375 C 312.917969 217.390625 312.230469 216.957031 311.472656 217.015625 C 310.722656 217.074219 310.105469 217.625 309.957031 218.363281 L 306.386719 236.046875 L 302.613281 201.429688 C 302.523438 200.609375 301.851562 199.972656 301.019531 199.929688 C 300.210938 199.882812 299.453125 200.449219 299.28125 201.261719 L 294.246094 224.605469 L 290.273438 215.339844 C 289.988281 214.667969 289.300781 214.246094 288.585938 214.320312 C 287.863281 214.375 287.253906 214.890625 287.082031 215.59375 L 285.574219 221.613281 L 282.199219 203.925781 C 282.042969 203.085938 281.296875 202.484375 280.429688 202.554688 C 279.582031 202.609375 278.90625 203.289062 278.855469 204.136719 L 276.960938 235.855469 L 273.742188 221.921875 C 273.558594 221.128906 272.839844 220.585938 272.027344 220.609375 C 271.214844 220.644531 270.539062 221.25 270.421875 222.054688 L 267.679688 240.679688 L 262.800781 178.839844 C 262.730469 177.972656 262.019531 177.296875 261.148438 177.28125 L 261.113281 177.28125 C 260.257812 177.28125 259.535156 177.921875 259.4375 178.765625 L 254.308594 221.496094 L 252.625 216.171875 C 252.375 215.367188 251.5625 214.875 250.738281 215.007812 C 249.910156 215.148438 249.304688 215.875 249.324219 216.714844 L 249.359375 218.289062 L 247.300781 203.648438 C 247.183594 202.828125 246.488281 202.210938 245.664062 202.195312 C 244.816406 202.199219 244.117188 202.761719 243.964844 203.578125 L 240.851562 220.371094 L 226.445312 220.371094 C 226.683594 221.632812 226.542969 222.777344 226.109375 223.753906 L 242.261719 223.753906 C 243.078125 223.753906 243.777344 223.171875 243.921875 222.375 L 245.398438 214.402344 L 250.011719 247.210938 C 250.140625 248.097656 250.90625 248.738281 251.824219 248.664062 C 252.714844 248.589844 253.398438 247.835938 253.375 246.941406 L 252.96875 228.476562 L 253.441406 229.980469 C 253.679688 230.738281 254.398438 231.230469 255.210938 231.152344 C 256.003906 231.082031 256.636719 230.460938 256.730469 229.671875 L 260.765625 196.050781 L 265.488281 255.867188 C 265.558594 256.71875 266.253906 257.390625 267.117188 257.421875 L 267.175781 257.421875 C 268.011719 257.421875 268.722656 256.808594 268.847656 255.976562 L 272.460938 231.410156 L 276.300781 248.03125 C 276.488281 248.851562 277.25 249.410156 278.089844 249.335938 C 278.925781 249.265625 279.585938 248.589844 279.636719 247.753906 L 281.417969 217.871094 L 283.695312 229.789062 C 283.84375 230.570312 284.511719 231.136719 285.308594 231.160156 C 286.09375 231.214844 286.800781 230.648438 286.996094 229.878906 L 289.144531 221.28125 L 293.226562 230.808594 C 293.515625 231.484375 294.210938 231.890625 294.941406 231.828125 C 295.675781 231.757812 296.277344 231.222656 296.433594 230.496094 L 300.382812 212.183594 L 304.207031 247.246094 C 304.296875 248.070312 304.976562 248.710938 305.808594 248.75 C 306.667969 248.765625 307.378906 248.210938 307.539062 247.398438 L 312.121094 224.734375 L 315.667969 233.976562 C 315.933594 234.671875 316.625 235.113281 317.363281 235.054688 C 318.113281 235.003906 318.730469 234.472656 318.894531 233.742188 L 321.792969 220.988281 L 328.640625 231.660156 C 328.949219 232.148438 329.488281 232.4375 330.0625 232.4375 L 366.835938 232.4375 C 367.769531 232.4375 368.527344 231.683594 368.527344 230.746094 C 368.527344 229.8125 367.769531 229.058594 366.835938 229.058594"/></g><g clip-path="url(#7ec7a89e66)" clip-rule="nonzero"><path style="stroke:none;fill-rule:nonzero;fill:#f54748;fill-opacity:1" d="M 143.382812 220.371094 L 134.144531 220.371094 L 131.03125 203.578125 C 130.878906 202.761719 130.179688 202.199219 129.332031 202.195312 C 128.507812 202.210938 127.8125 202.828125 127.695312 203.648438 L 125.636719 218.289062 L 125.671875 216.714844 C 125.695312 215.875 125.089844 215.148438 124.261719 215.007812 C 123.433594 214.875 122.621094 215.367188 122.371094 216.171875 L 120.6875 221.496094 L 115.5625 178.765625 C 115.460938 177.921875 114.738281 177.28125 113.886719 177.28125 L 113.851562 177.28125 C 112.976562 177.296875 112.269531 177.972656 112.195312 178.839844 L 107.316406 240.679688 L 104.574219 222.054688 C 104.457031 221.25 103.78125 220.644531 102.96875 220.609375 C 102.15625 220.585938 101.4375 221.128906 101.257812 221.921875 L 98.035156 235.855469 L 96.140625 204.136719 C 96.09375 203.289062 95.414062 202.609375 94.5625 202.554688 C 93.695312 202.484375 92.957031 203.085938 92.792969 203.925781 L 89.417969 221.613281 L 87.914062 215.59375 C 87.742188 214.890625 87.136719 214.375 86.410156 214.320312 C 85.695312 214.246094 85.011719 214.667969 84.722656 215.339844 L 80.75 224.605469 L 75.714844 201.261719 C 75.542969 200.449219 74.789062 199.882812 73.976562 199.929688 C 73.144531 199.972656 72.476562 200.609375 72.382812 201.429688 L 68.613281 236.046875 L 65.039062 218.363281 C 64.890625 217.625 64.273438 217.074219 63.523438 217.015625 C 62.765625 216.957031 62.074219 217.390625 61.800781 218.09375 L 58.164062 227.570312 L 55.601562 216.300781 C 55.453125 215.640625 54.914062 215.132812 54.25 215.011719 C 53.578125 214.894531 52.898438 215.195312 52.53125 215.765625 L 44.011719 229.058594 L 8.164062 229.058594 C 7.230469 229.058594 6.472656 229.8125 6.472656 230.746094 C 6.472656 231.683594 7.230469 232.4375 8.164062 232.4375 L 44.933594 232.4375 C 45.507812 232.4375 46.046875 232.148438 46.355469 231.660156 L 53.199219 220.988281 L 56.101562 233.742188 C 56.269531 234.472656 56.886719 235.003906 57.628906 235.054688 C 58.371094 235.113281 59.0625 234.671875 59.324219 233.976562 L 62.875 224.734375 L 67.457031 247.398438 C 67.621094 248.210938 68.328125 248.765625 69.191406 248.75 C 70.019531 248.710938 70.703125 248.070312 70.789062 247.246094 L 74.613281 212.183594 L 78.5625 230.496094 C 78.71875 231.222656 79.324219 231.757812 80.050781 231.828125 C 80.785156 231.890625 81.476562 231.484375 81.769531 230.808594 L 85.855469 221.28125 L 88 229.878906 C 88.191406 230.648438 88.902344 231.214844 89.6875 231.160156 C 90.484375 231.136719 91.15625 230.570312 91.304688 229.789062 L 93.578125 217.871094 L 95.363281 247.753906 C 95.410156 248.589844 96.066406 249.265625 96.90625 249.335938 C 97.742188 249.410156 98.507812 248.851562 98.695312 248.03125 L 102.535156 231.410156 L 106.148438 255.976562 C 106.273438 256.808594 106.984375 257.421875 107.824219 257.421875 L 107.878906 257.421875 C 108.742188 257.390625 109.441406 256.71875 109.507812 255.867188 L 114.230469 196.050781 L 118.265625 229.671875 C 118.359375 230.460938 118.992188 231.082031 119.785156 231.152344 C 120.59375 231.230469 121.316406 230.738281 121.554688 229.980469 L 122.03125 228.476562 L 121.621094 246.941406 C 121.601562 247.835938 122.28125 248.589844 123.171875 248.664062 C 124.089844 248.738281 124.859375 248.097656 124.980469 247.210938 L 129.597656 214.402344 L 131.070312 222.375 C 131.222656 223.171875 131.921875 223.753906 132.734375 223.753906 L 144.621094 223.753906 C 144.121094 222.648438 143.707031 221.503906 143.382812 220.371094"/></g><path style="stroke:none;fill-rule:nonzero;fill:#f54748;fill-opacity:1" d="M 196.777344 194.585938 C 192.894531 197.808594 185.988281 198.46875 181.902344 195.152344 C 180.714844 194.195312 179.929688 192.988281 178.960938 191.835938 C 178.703125 191.507812 178.429688 191.199219 178.140625 190.902344 C 178.015625 190.9375 177.78125 190.953125 177.429688 190.941406 C 174.847656 191.984375 173.28125 193.96875 170.285156 194.21875 C 164.804688 194.675781 159.351562 194.222656 154.144531 192.75 C 152.082031 197.84375 150.796875 202.46875 150.796875 206.097656 C 150.796875 224.660156 165.851562 239.714844 184.421875 239.714844 C 202.984375 239.714844 218.035156 224.660156 218.035156 206.097656 C 218.035156 202.972656 217.078125 199.105469 215.5 194.832031 C 209.222656 193.527344 202.359375 189.949219 196.777344 194.585938"/><g clip-path="url(#9745e3948e)" clip-rule="nonzero"><path style="stroke:none;fill-rule:nonzero;fill:#f54748;fill-opacity:1" d="M 184.421875 246.550781 C 161.5625 246.550781 143.035156 228.019531 143.035156 205.164062 C 143.035156 193.785156 153.289062 174.382812 163.582031 157.765625 C 173.976562 140.996094 184.421875 127.050781 184.421875 127.050781 C 184.421875 127.050781 225.804688 182.304688 225.804688 205.164062 C 225.804688 228.019531 207.277344 246.550781 184.421875 246.550781 Z M 184.421875 117.480469 C 184.421875 117.480469 172.304688 133.65625 160.246094 153.113281 C 148.296875 172.398438 136.402344 194.902344 136.402344 208.105469 C 136.402344 234.621094 157.902344 256.121094 184.421875 256.121094 C 210.9375 256.121094 232.433594 234.621094 232.433594 208.105469 C 232.433594 181.582031 184.421875 117.480469 184.421875 117.480469"/></g></g></svg>